PathFileType	4	(X/Y/Z)	7_coords_data.trc
DataRate	CameraRate	NumFrames	NumMarkers	Units	OrigDataRate	OrigDataStartFrame	OrigNumFrames
30.0	30.0	9	21	m	30.0	31	50
Frame#	Time	THUMB_TIP	THUMB_IP	THUMB_MCP	THUMB_CMC	INDEX_TIP	INDEX_DIP	INDEX_PIP	INDEX_MCP	MIDDLE_TIP	MIDDLE_DIP	MIDDLE_PIP	MIDDLE_MCP	RING_TIP	RING_DIP	RING_PIP	RING_MCP	PINKY_TIP	PINKY_DIP	PINKY_PIP	PINKY_MCP	WRIST
X1	Y1	Z1	X2	Y2	Z2	X3	Y3	Z3	X4	Y4	Z4	X5	Y5	Z5	X6	Y6	Z6	X7	Y7	Z7	X8	Y8	Z8	X9	Y9	Z9	X10	Y10	Z10	X11	Y11	Z11	X12	Y12	Z12	X13	Y13	Z13	X14	Y14	Z14	X15	Y15	Z15	X16	Y16	Z16	X17	Y17	Z17	X18	Y18	Z18	X19	Y19	Z19	X20	Y20	Z20	X21	Y21	Z21
29	0.9999999999999956	0.5330969436957134	-0.03016903668567661	-0.1248151967658058	0.5116208165029212	-0.029549396987615606	-0.13296332584207854	0.4831506299048616	-0.024516194092444543	-0.12143356679482614	0.47179795772600464	-0.028395974248407896	-0.07846899836523752	0.5608175740138466	0.07199332012895143	-0.14638433866406195	0.5469749413341829	0.0625554462220338	-0.13950625342083958	0.5286006645120558	0.04841344773013878	-0.12979030452641424	0.5021425591421667	0.01930143807432938	-0.11347786608098545	0.5134227169373561	-0.022174548286682083	-0.12172346828372169	0.530691120972484	-0.021528083784142726	-0.12714419754522588	0.5468458568755896	0.0020124684373584723	-0.12128958748069571	0.5173270695226369	0.020622292373856155	-0.09338862751040589	0.5280021299670301	-0.028139393319309147	-0.10919945859239172	0.5447568367865865	-0.021521397790269514	-0.10989367366592859	0.5583627378614187	-0.002438420396543073	-0.10147349500200414	0.5298526103509806	0.012100058734949792	-0.07676466888901931	0.5990259763139	0.02142056982622853	-0.06097234580590294	0.5838882762523031	0.013697370647781315	-0.06302228026709031	0.5652115548737988	0.004534529874141602	-0.06585679019063076	0.5328270526977974	-0.010751842247489374	-0.07015263669296062	0.4622830810018609	-0.023011742144276925	-0.05198982011943096
30	1.0333333333333288	0.5330548293479438	-0.029946355984273088	-0.12425733146508525	0.5117343984313929	-0.029329595754177817	-0.1328047774199395	0.48318393681474225	-0.02438471849471424	-0.12143642967873283	0.47176927456580553	-0.028324375452370876	-0.07849374009367444	0.5614455418069876	0.07017405751820005	-0.147710504732278	0.5473442169680456	0.061709192408062497	-0.1401277152420037	0.528639784172822	0.048527485221511624	-0.12971634537742768	0.5020643762019867	0.01954843101295556	-0.11335791628532824	0.5133446530852855	-0.02200120557430396	-0.1212888652307022	0.5305643526532466	-0.021291657083600257	-0.12685469739925564	0.5468515757235588	0.002205584419536444	-0.12119646831223904	0.517271397089378	0.02075625419394178	-0.09332114582278764	0.527751851938218	-0.027812757100910246	-0.10880313283614873	0.5445537874901416	-0.02132684036035082	-0.10959550001337179	0.5583008611726772	-0.0022714684194447	-0.10134378841148775	0.5297884747839592	0.01229905099653017	-0.07665645116404146	0.5992157116896523	0.021314118445858288	-0.06128827103638851	0.584012235667817	0.013684753039765019	-0.06319800933096875	0.5652726057180749	0.004610883537633836	-0.06590044908145795	0.5328094930433609	-0.010541153226886868	-0.07007723592727988	0.4622830810018608	-0.023011742144276925	-0.051989820119430985
31	1.0666666666666622	0.5330430132873025	-0.029452181148353573	-0.12358601822719115	0.511922781761938	-0.028860791080462245	-0.13261851943685604	0.483265472285206	-0.024127855355276062	-0.12143022497451458	0.47176241216620995	-0.028190773450772588	-0.07852262303210758	0.5621576602520222	0.06789521533012055	-0.14907297289100616	0.547797653961406	0.06065772774574074	-0.14074176692791718	0.528704974477207	0.04870063738008823	-0.12958347794164007	0.5018668419703622	0.019993033755920875	-0.11317542407462886	0.5132213635506601	-0.02141568751923628	-0.1208003802187867	0.5304157566771548	-0.02070052647653786	-0.12644319775035354	0.5467936216089004	0.002801103676499661	-0.12107212053741664	0.5170786915258965	0.02112187415807698	-0.09318807097277215	0.527369228860449	-0.027001788911067415	-0.10806574081150747	0.5442456721373484	-0.02075664796598209	-0.10915380188406706	0.558144879081973	-0.0016979599817468216	-0.101168913805323	0.5295940773566701	0.012790968284682513	-0.07647795366739588	0.599645494279145	0.021122778554075627	-0.06212395994835132	0.5843029656689758	0.013703215178571204	-0.06372298939242294	0.5654111024908764	0.004855513919551191	-0.06609526827381865	0.5327688462078176	-0.010015879337390787	-0.0698646473139905	0.462283081001861	-0.023011742144276925	-0.051989820119430985
32	1.0999999999999952	0.533099744244445	-0.028723814790178714	-0.12328161744813276	0.5120717980307085	-0.02822445687824482	-0.13253235361927043	0.4833387511611221	-0.023759876383105505	-0.12142832108182808	0.47176531518807785	-0.02800456541275198	-0.07855725630826027	0.5627108819649487	0.06522601485624024	-0.15052321020998544	0.5481537720958556	0.05944397211480512	-0.14143153632695538	0.5286776754046644	0.04894791354553896	-0.12949318446474664	0.5014965879275349	0.020640459542655032	-0.11295496734695393	0.5133019346840125	-0.020577282101756467	-0.12054348382679955	0.5304625013672969	-0.019674848149734303	-0.12626192452954255	0.5466861136925584	0.0039614025713397005	-0.12101486773833514	0.5167147378258525	0.02171037858531355	-0.0930356182824969	0.5274253821099569	-0.026161586403597226	-0.10780186025088662	0.5442428309994372	-0.019778655598305384	-0.10899835813411629	0.55796484236034	-0.0005674686762201508	-0.1010726606723178	0.529270244282461	0.01350663269920005	-0.07630856275570896	0.6002812621494662	0.020777513253569913	-0.06355682301146226	0.5847392046870653	0.013692746968171021	-0.06467509691203518	0.5656042342551733	0.005243681332435246	-0.06648568119718906	0.532691994018893	-0.00918930004054419	-0.06954459314698591	0.4622830810018609	-0.023011742144276925	-0.05198982011943101
33	1.1333333333333284	0.5332540870539165	-0.027644535736946918	-0.1233578209399962	0.5121873400413933	-0.02729368054419612	-0.13252673968454107	0.48339449961020864	-0.023180778890472098	-0.12144177780408641	0.47180696553857093	-0.02768301602924028	-0.07860080541917278	0.562943049833305	0.062327293808421835	-0.1519743717742048	0.5483048306226341	0.05819511245234088	-0.14214341985789464	0.5285174949705856	0.0493483816356407	-0.12940738693354872	0.500937271657625	0.021565486385050736	-0.11264200272972069	0.5134504059761092	-0.019412773075987877	-0.12044634248140013	0.5305588023987554	-0.018160122119846966	-0.12625440906397886	0.5464618554004936	0.00568895263193947	-0.12098904215296394	0.5161657164427556	0.02256459767103247	-0.09281983041802239	0.5278587374423149	-0.025299114574150572	-0.10814409321546042	0.5444725258183891	-0.01837481364814686	-0.1091619794965196	0.5577150774239858	0.0010869945117167878	-0.10103469033458026	0.5287988767337011	0.01446545875136196	-0.07614310809825545	0.6009788036470526	0.020359991862305082	-0.06553694284750577	0.5852101956032125	0.013717080897193812	-0.06600889016379041	0.5657916034133244	0.005804940530916292	-0.06707111951149947	0.5325532067177408	-0.008042317569737167	-0.06915579675292324	0.4622830810018608	-0.023011742144276925	-0.051989820119430985
34	1.1666666666666616	0.5336609309001431	-0.02642725982601779	-0.1238377956063739	0.512400097135885	-0.026149478464982057	-0.1325498438824132	0.4835638219341981	-0.02243789177691824	-0.12143618756464067	0.47186874148611835	-0.027223745545566058	-0.0786552257122225	0.5628143209826796	0.05927189046991155	-0.1532633697521076	0.5482347729091195	0.05693772398418451	-0.1427758321580077	0.5282193225242426	0.049912389594474416	-0.12928375093963043	0.5001683430627742	0.022798664180299966	-0.11220673306714934	0.5134273450157922	-0.017859343135703143	-0.12012114547564726	0.530435666096462	-0.016103482090967236	-0.1260905647110859	0.5460623688579236	0.007938960607884571	-0.12087744089926677	0.5154090730526609	0.023745060372591498	-0.09247514191655765	0.5283866371869087	-0.024201834739793204	-0.10858782919687626	0.5446787039446833	-0.016520003883342405	-0.10933484690288911	0.5573279280120023	0.0032179186514490477	-0.10093297071329113	0.5281620631256614	0.01573439118961939	-0.075884795637391	0.6016056083420029	0.019968393755831704	-0.06791030819351485	0.585612255594763	0.013876407526069667	-0.06759349329685926	0.5659151407599755	0.006608797631541541	-0.0677259040447313	0.532340438759677	-0.006536186231303254	-0.06863817365219396	0.462283081001861	-0.023011742144276925	-0.05198982011943101
35	1.1999999999999948	0.5343261532563285	-0.025014438025778074	-0.12478796792928482	0.512711247389301	-0.024756663514736488	-0.13258087474644834	0.48384124683061314	-0.021566881588638065	-0.12139300814886589	0.4719999721330391	-0.026671659626654187	-0.07868919737372326	0.5621391291025093	0.05632674088781375	-0.15431764780217858	0.5477748096861585	0.05583879217237442	-0.14329819982343905	0.5276535025312257	0.05070196952014672	-0.12912936485311027	0.49917576628502724	0.02428405964602509	-0.1116723126914552	0.5137005757610877	-0.016589718098459327	-0.12033564087414139	0.5305950185038217	-0.01367421198382035	-0.12617324556339413	0.5454923871293982	0.010760309471852136	-0.12065671411093493	0.5144308458818929	0.025238819076419672	-0.09199138076279512	0.5291849160108165	-0.02297434849545743	-0.10910828220727345	0.5449314443169719	-0.014205725586806772	-0.1095058983404181	0.5567812239944347	0.0058836573329226205	-0.10077781753762588	0.5273445510532309	0.017304818332550598	-0.07552390295843286	0.6019666586088325	0.01985837452505912	-0.07051989745300175	0.5857988679646062	0.014372731727468446	-0.06929096751939529	0.5658721272703158	0.007823987070627592	-0.06836848840201329	0.5320341007495778	-0.004653513050296043	-0.06794023273749583	0.4622830810018609	-0.023011742144276925	-0.05198982011943101
36	1.233333333333328	0.535073079873696	-0.023247230930678264	-0.1263945530165887	0.5129698049334146	-0.023103305779221373	-0.1326734480200989	0.4840969986866882	-0.02053076546626731	-0.12133488127746225	0.4721445200982769	-0.02605197887614541	-0.0787139420799721	0.5609485486347456	0.05367775801028274	-0.15515617886444535	0.5469411550859606	0.05492436444471338	-0.14374395303566456	0.5268623096810814	0.05160220901883594	-0.12898546112309867	0.49800957515148725	0.025908408438365282	-0.11106942317114682	0.5146270877118528	-0.015572606075630158	-0.1214708150679212	0.531331155102462	-0.010973990417606938	-0.12674593275758197	0.5448283719545979	0.014047806475172009	-0.12033154521839051	0.5132890546033966	0.026904415165042495	-0.0914156846049527	0.5305967328147254	-0.021602165954617503	-0.11040457603521456	0.5455208801548996	-0.011494541726630558	-0.11007937050853256	0.5561042491084506	0.008978968631662143	-0.10064498371330832	0.5263877924386574	0.01902544598275968	-0.07513574362611261	0.6020225776178781	0.019806013109727516	-0.07332140861296413	0.5857456402329988	0.01500012444420118	-0.07109323817440133	0.5656710320729057	0.00920721797966384	-0.06902820526622819	0.5316327556319445	-0.002569749998942772	-0.06713553171815201	0.4622830810018609	-0.023011742144276925	-0.051989820119430985
37	1.2666666666666608	0.5356109373277707	-0.021206066879424834	-0.12867838201382173	0.5130279294746394	-0.02121210101974913	-0.13292193240171166	0.48421246812241714	-0.019385397837130336	-0.12129642843236918	0.4722920868421573	-0.02536509705821155	-0.0787283922155241	0.5594901668202823	0.051666155798101854	-0.15561095084723256	0.545880062409849	0.0543460664794615	-0.14396693364194468	0.5259286964741738	0.052592895394662054	-0.12877222333051702	0.49674624729330386	0.027627195118487435	-0.11036748036773286	0.5165620749225028	-0.01430985067881474	-0.12349340326973035	0.5328814903227072	-0.007678746142493531	-0.12770115012808006	0.5442351909074574	0.017969499021305402	-0.11978467660450248	0.5120377092060854	0.028680338120549598	-0.09072012742719848	0.5328974038578982	-0.019715831417046803	-0.11238922582611796	0.5466995854558006	-0.008210501105110346	-0.11093074800600564	0.5554766839527732	0.012563589846794732	-0.10036762033961702	0.5253428845295953	0.020805105255144563	-0.07470144824291292	0.6017575214015569	0.019701855116573186	-0.07610750385196038	0.5854548051232862	0.01563272181456954	-0.07284198764150715	0.5653238172186468	0.010624153484125043	-0.06960631332808706	0.5311444506659196	-0.00038981736806420475	-0.06623781230812942	0.4622830810018609	-0.023011742144276925	-0.05198982011943096
